<svg width="24" height="24" viewBox="0 0 24 24" fill="none" xmlns="http://www.w3.org/2000/svg">
  <path
    d="M4.49653 7.44076C3.54828 8.11775 2.77947 8.84164 2.19034 9.47966C0.858429 10.9221 0.85843 13.0777 2.19034 14.5201C3.91774 16.3908 7.18983 18.9999 12.001 18.9999C13.2968 18.9999 14.4809 18.8106 15.5533 18.4975L13.8905 16.8348C13.2947 16.9408 12.6648 16.9999 12.001 16.9999C7.96794 16.9999 5.18936 14.8199 3.65972 13.1633C3.0353 12.4871 3.0353 11.5127 3.65972 10.8365C4.23858 10.2096 4.9963 9.50771 5.93318 8.87741L4.49653 7.44076Z"
    fill="currentColor" />
  <path
    d="M8.53403 11.4783C8.5086 11.6484 8.49542 11.8226 8.49542 11.9999C8.49542 13.9329 10.0624 15.4999 11.9954 15.4999C12.1727 15.4999 12.3469 15.4867 12.517 15.4613L8.53403 11.4783Z"
    fill="currentColor" />
  <path
    d="M15.4671 12.447L11.5483 8.52816C11.6947 8.5095 11.844 8.49988 11.9954 8.49988C13.9284 8.49988 15.4954 10.0669 15.4954 11.9999C15.4954 12.1513 15.4858 12.3006 15.4671 12.447Z"
    fill="currentColor" />
  <path
    d="M18.1128 15.0926C19.0295 14.47 19.7726 13.7804 20.3423 13.1633C20.9668 12.4871 20.9668 11.5127 20.3423 10.8365C18.8127 9.1799 16.0341 6.99988 12.001 6.99988C11.3604 6.99988 10.7515 7.05487 10.1742 7.15403L8.50587 5.4857C9.56314 5.18248 10.7282 4.99988 12.001 4.99988C16.8122 4.99988 20.0843 7.60892 21.8117 9.47966C23.1436 10.9221 23.1436 13.0777 21.8117 14.5201C21.2315 15.1485 20.477 15.8601 19.5484 16.5282L18.1128 15.0926Z"
    fill="currentColor" />
  <path
    d="M2.00893 3.42195C1.6184 3.03143 1.6184 2.39826 2.00893 2.00774C2.39945 1.61721 3.03261 1.61721 3.42314 2.00774L22.0015 20.5861C22.392 20.9766 22.392 21.6098 22.0015 22.0003C21.6109 22.3908 20.9778 22.3908 20.5873 22.0003L2.00893 3.42195Z"
    fill="currentColor" />
</svg>