<svg width="24" height="24" viewBox="0 0 24 24" fill="none" xmlns="http://www.w3.org/2000/svg">
  <path fill-rule="evenodd" clip-rule="evenodd"
    d="M11.9954 15.5C13.9284 15.5 15.4954 13.933 15.4954 12C15.4954 10.067 13.9284 8.5 11.9954 8.5C10.0624 8.5 8.49542 10.067 8.49542 12C8.49542 13.933 10.0624 15.5 11.9954 15.5ZM11.9954 13.4944C11.1701 13.4944 10.501 12.8253 10.501 12C10.501 11.1747 11.1701 10.5056 11.9954 10.5056C12.8207 10.5056 13.4898 11.1747 13.4898 12C13.4898 12.8253 12.8207 13.4944 11.9954 13.4944Z"
    fill="currentColor" />
  <path fill-rule="evenodd" clip-rule="evenodd"
    d="M12.001 5C7.18982 5 3.91774 7.60905 2.19034 9.47978C0.858429 10.9222 0.85843 13.0778 2.19034 14.5202C3.91774 16.391 7.18983 19 12.001 19C16.8122 19 20.0843 16.391 21.8117 14.5202C23.1436 13.0778 23.1436 10.9222 21.8117 9.47978C20.0843 7.60905 16.8122 5 12.001 5ZM3.65972 10.8366C5.18936 9.18002 7.96794 7 12.001 7C16.0341 7 18.8127 9.18002 20.3423 10.8366C20.9668 11.5128 20.9668 12.4872 20.3423 13.1634C18.8127 14.82 16.0341 17 12.001 17C7.96794 17 5.18936 14.82 3.65972 13.1634C3.0353 12.4872 3.0353 11.5128 3.65972 10.8366Z"
    fill="currentColor" />
</svg>