<svg width="24" height="24" viewBox="0 0 24 24" fill="none" xmlns="http://www.w3.org/2000/svg">
  <path fill-rule="evenodd" clip-rule="evenodd"
    d="M3.48883 6.00387C2.76317 7.24787 2.52434 8.97403 2.9702 10.7575C3.13065 11.3992 3.59709 12.2243 4.33633 13.174C5.06122 14.1052 5.98646 15.0787 6.96642 16.0127C8.90951 17.8648 11.0006 19.4985 12.0001 20.254C12.9995 19.4985 15.0906 17.8648 17.0337 16.0127C18.0137 15.0787 18.9389 14.1052 19.6638 13.174C20.403 12.2243 20.8695 11.3992 21.0299 10.7575C21.4758 8.97403 21.237 7.24788 20.5113 6.00387C19.803 4.78965 18.6202 4 17.0001 4C15.5905 4 14.597 5.04228 13.8945 6.44721C13.557 7.12228 13.3275 7.80745 13.1823 8.33015C13.1103 8.58959 13.0602 8.80435 13.0286 8.95172C12.9167 9.47392 12.3144 9.5 12.0001 9.5C11.6858 9.5 11.0823 9.46905 10.9715 8.95172C10.9399 8.80436 10.8899 8.58959 10.8178 8.33015C10.6726 7.80745 10.4432 7.12229 10.1056 6.44722C9.40314 5.04228 8.40963 4 7.00004 4C5.37986 4 4.19713 4.78965 3.48883 6.00387ZM12.0001 5.77011C12.0342 5.69784 12.0694 5.62535 12.1056 5.55279C12.9032 3.95772 14.4097 2 17.0001 2C19.3799 2 21.1971 3.21035 22.2388 4.99613C23.2632 6.75212 23.5243 9.02597 22.9702 11.2425C22.7077 12.2927 22.0355 13.3832 21.242 14.4025C20.4342 15.4402 19.4327 16.4891 18.4136 17.4605C16.3742 19.4042 14.1957 21.1022 13.1811 21.8683C12.4804 22.3974 11.5197 22.3974 10.819 21.8683C9.80439 21.1022 7.62589 19.4042 5.58654 17.4605C4.56739 16.4891 3.56592 15.4402 2.75812 14.4025C1.96467 13.3832 1.29246 12.2927 1.02992 11.2425C0.475775 9.02597 0.736945 6.75213 1.76127 4.99613C2.80297 3.21035 4.62023 2 7.00004 2C9.59044 2 11.0969 3.95772 11.8945 5.55278C11.9308 5.62535 11.9659 5.69784 12.0001 5.77011Z"
    fill="currentColor" />
</svg>