<svg width="24" height="24" viewBox="0 0 24 24" fill="none" xmlns="http://www.w3.org/2000/svg">
  <path fill-rule="evenodd" clip-rule="evenodd"
    d="M12 1C12.5523 1 13 1.44772 13 2V3.03241C14.2498 3.11076 15.4551 3.31872 16.4996 3.51766C16.7363 3.56274 16.9613 3.6067 17.1766 3.64875C17.5771 3.72697 17.9441 3.79865 18.2885 3.85854C18.8201 3.95099 19.2169 4 19.5 4C20.0262 4 20.4799 3.824 20.8163 3.63176C20.987 3.53425 21.1543 3.42192 21.2985 3.28732C21.6894 2.90238 22.3184 2.90423 22.7071 3.29289C23.0976 3.68342 23.0976 4.31658 22.7071 4.70711C22.6248 4.78929 22.5358 4.8645 22.445 4.93712C22.2947 5.05735 22.08 5.21318 21.8086 5.36824C21.5531 5.51425 21.2396 5.66392 20.8766 5.7809L23.592 12.7633C23.8408 13.403 24.0883 14.3096 23.7733 15.2388C23.5809 15.8064 23.2111 16.5114 22.5024 17.0733C21.7828 17.6438 20.7978 18 19.5 18C18.2022 18 17.2171 17.6438 16.4976 17.0733C15.7888 16.5114 15.419 15.8064 15.2267 15.2388C14.9117 14.3096 15.1592 13.403 15.4079 12.7633L18.0948 5.85438C17.6825 5.78545 17.2362 5.69819 16.7643 5.60606C16.5535 5.5649 16.3393 5.5231 16.1254 5.48234C15.1313 5.293 14.0689 5.11204 13 5.03671V21H17C17.5523 21 18 21.4477 18 22C18 22.5523 17.5523 23 17 23H6.99997C6.44769 23 5.99997 22.5523 5.99997 22C5.99997 21.4477 6.44769 21 6.99997 21H11V5.03671C9.93103 5.11204 8.8686 5.293 7.87459 5.48234C7.6606 5.5231 7.44648 5.5649 7.23564 5.60606C6.76372 5.69819 6.31746 5.78545 5.90519 5.85438L8.592 12.7633C8.84076 13.403 9.08828 14.3096 8.77329 15.2388C8.58092 15.8064 8.2111 16.5114 7.50236 17.0733C6.7828 17.6438 5.79778 18 4.49997 18C3.20216 18 2.21714 17.6438 1.49759 17.0733C0.788849 16.5114 0.419026 15.8064 0.226658 15.2388C-0.0883352 14.3096 0.15918 13.403 0.407944 12.7633L3.12333 5.7809C2.76037 5.66392 2.44685 5.51425 2.19133 5.36824C1.91997 5.21318 1.70526 5.05735 1.55497 4.93712C1.54619 4.9301 1.29287 4.70711 1.29287 4.70711C0.902342 4.31658 0.902342 3.68342 1.29287 3.29289C1.68152 2.90424 2.31049 2.90238 2.70144 3.2873C2.71452 3.29973 2.89565 3.46721 3.18361 3.63176C3.52004 3.824 3.97375 4 4.49997 4C4.78308 4 5.17985 3.95099 5.71144 3.85854C6.0559 3.79863 6.42264 3.72701 6.82327 3.64876C7.03848 3.60673 7.26379 3.56272 7.50036 3.51766C8.54483 3.31872 9.75013 3.11076 11 3.03241V2C11 1.44772 11.4477 1 12 1ZM4.49997 7.75903L2.46182 13H6.53813L4.49997 7.75903ZM2.74013 15.5061C2.55188 15.3569 2.41017 15.1818 2.30348 15H6.69647C6.58978 15.1818 6.44806 15.3569 6.25982 15.5061C5.94441 15.7562 5.41582 16 4.49997 16C3.58413 16 3.05553 15.7562 2.74013 15.5061ZM17.4618 13L19.5 7.75903L21.5381 13H17.4618ZM17.3035 15C17.4102 15.1818 17.5519 15.3569 17.7401 15.5061C18.0555 15.7562 18.5841 16 19.5 16C20.4158 16 20.9444 15.7562 21.2598 15.5061C21.4481 15.3569 21.5898 15.1818 21.6965 15H17.3035Z"
    fill="currentColor" />
</svg>