<svg width="30" height="30" viewBox="0 0 30 30" fill="none" xmlns="http://www.w3.org/2000/svg">
  <path
    d="M25.9321 4.16055C25.444 3.6724 24.6525 3.67239 24.1644 4.16055L15.0464 13.2785L5.92844 4.16055C5.44028 3.6724 4.64883 3.6724 4.16067 4.16055C3.67252 4.64871 3.67252 5.44016 4.16067 5.92832L13.2786 15.0463L4.1607 24.1642C3.67254 24.6524 3.67254 25.4438 4.1607 25.932C4.64885 26.4201 5.44031 26.4201 5.92846 25.932L15.0464 16.8141L24.1643 25.932C24.6525 26.4202 25.444 26.4202 25.9321 25.932C26.4203 25.4438 26.4203 24.6524 25.9321 24.1642L16.8142 15.0463L25.9321 5.92832C26.4203 5.44016 26.4203 4.64871 25.9321 4.16055Z"
    fill="currentColor" />
</svg>