<svg width="21" height="11" viewBox="0 0 21 11" fill="none" xmlns="http://www.w3.org/2000/svg">
<path d="M4 6H17V7H4V6Z" fill="#579040"/>
<path d="M5 5H16V6H5V5Z" fill="#579040"/>
<path d="M6 4H15V5H6V4Z" fill="#579040"/>
<path d="M7 3H14V4H7V3Z" fill="#579040"/>
<path d="M8 2H13V3H8V2Z" fill="#579040"/>
<path d="M9 1H12V2H9V1Z" fill="#579040"/>
<path d="M10 0H11V1H10V0Z" fill="#579040"/>
<path d="M3 7H18V8H3V7Z" fill="#579040"/>
<path d="M2 8H19V9H2V8Z" fill="#579040"/>
<path d="M1 9H20V10H1V9Z" fill="#579040"/>
<path d="M0 10H21V11H0V10Z" fill="#579040"/>
</svg>
