<svg xmlns="http://www.w3.org/2000/svg" style="display: none;">
    <symbol id="arrow-down" viewBox="0 0 24 24">
        <path
            d="M5.70696 9.71057C5.31643 10.1011 5.31643 10.7343 5.70696 11.1248L10.5992 16.0122C11.3803 16.7926 12.6461 16.7923 13.4269 16.0115L18.3173 11.1212C18.7078 10.7306 18.7078 10.0975 18.3173 9.70696C17.9268 9.31643 17.2936 9.31643 16.9031 9.70696L12.7174 13.8926C12.3269 14.2831 11.6937 14.2831 11.3032 13.8926L7.12117 9.71057C6.73065 9.32004 6.09748 9.32004 5.70696 9.71057Z" fill="currentColor"/>
    </symbol>

    <symbol id="arrow-left" viewBox="0 0 24 24">
        <path
            d="M0.292841 6.65617C-0.0976829 7.0467 -0.097683 7.67986 0.292841 8.07039L6.6568 14.4343C7.04733 14.8249 7.68049 14.8249 8.07101 14.4343C8.46154 14.0438 8.46154 13.4107 8.07101 13.0201L2.41416 7.36328L8.07102 1.70643C8.46154 1.3159 8.46154 0.682737 8.07102 0.292213C7.68049 -0.0983117 7.04733 -0.0983118 6.6568 0.292213L0.292841 6.65617ZM16.7142 7.36328L16.7142 6.36328L0.999948 6.36328L0.999948 7.36328L0.999947 8.36328L16.7142 8.36328L16.7142 7.36328Z" fill="currentColor"/>
    </symbol>

    <symbol id="call-receive" viewBox="0 0 24 24">
        <path fill-rule="evenodd" clip-rule="evenodd" d="M17.3545 22.2322C15.3344 21.7261 11.1989 20.2993 7.44976 16.5501C3.70065 12.801 2.2738 8.66553 1.76767 6.64544C1.47681 5.48453 2.00058 4.36428 2.88869 3.72991L5.21694 2.06687C6.57922 1.09382 8.47432 1.42401 9.42724 2.80045L10.893 4.9177C11.5152 5.81644 11.3006 7.04824 10.4111 7.68359L9.24234 8.51843C9.41923 9.19504 9.96939 10.5845 11.6924 12.3075C13.4154 14.0305 14.8049 14.5807 15.4815 14.7576L16.3163 13.5888C16.9517 12.6993 18.1835 12.4847 19.0822 13.1069L21.1995 14.5727C22.5759 15.5256 22.9061 17.4207 21.933 18.783L20.27 21.1112C19.6356 21.9993 18.5154 22.5231 17.3545 22.2322ZM8.86397 15.1359C12.2734 18.5453 16.0358 19.84 17.8405 20.2922C18.1043 20.3583 18.4232 20.2558 18.6425 19.9487L20.3056 17.6205C20.6299 17.1664 20.5199 16.5347 20.061 16.2171L17.9438 14.7513L17.0479 16.0055C16.6818 16.5181 16.0047 16.9201 15.2163 16.75C14.2323 16.5377 12.4133 15.8568 10.2782 13.7217C8.1431 11.5866 7.46219 9.76764 7.24987 8.78364C7.07977 7.99524 7.48181 7.31815 7.99439 6.95202L9.24864 6.05612L7.78285 3.93886C7.46521 3.48005 6.83351 3.36999 6.37942 3.69434L4.05117 5.35738C3.74413 5.57669 3.64162 5.89559 3.70771 6.15937C4.15989 7.96412 5.45459 11.7266 8.86397 15.1359Z" fill="currentColor"/>
    </symbol>

    <symbol id="checkmark-small" viewBox="0 0 22 22">
        <circle cx="11" cy="11" r="10.5" stroke="currentColor"/>
        <path d="M16.5 7.33954C16.1932 7.0327 15.6957 7.0327 15.3888 7.33954L9.69624 13.0321C9.3894 13.339 8.89192 13.339 8.58508 13.0321L6.58826 11.0353C6.28142 10.7285 5.78394 10.7285 5.4771 11.0353C5.17026 11.3421 5.17026 11.8396 5.4771 12.1465L7.47822 14.1423C8.39904 15.0607 9.88969 15.0598 10.8094 14.1403L16.5 8.45071C16.8068 8.14387 16.8068 7.64638 16.5 7.33954Z" fill="currentColor"/>
    </symbol>

    <symbol id="close" viewBox="0 0 30 30">
        <path d="M25.9321 4.16055C25.444 3.6724 24.6525 3.67239 24.1644 4.16055L15.0464 13.2785L5.92844 4.16055C5.44028 3.6724 4.64883 3.6724 4.16067 4.16055C3.67252 4.64871 3.67252 5.44016 4.16067 5.92832L13.2786 15.0463L4.1607 24.1642C3.67254 24.6524 3.67254 25.4438 4.1607 25.932C4.64885 26.4201 5.44031 26.4201 5.92846 25.932L15.0464 16.8141L24.1643 25.932C24.6525 26.4202 25.444 26.4202 25.9321 25.932C26.4203 25.4438 26.4203 24.6524 25.9321 24.1642L16.8142 15.0463L25.9321 5.92832C26.4203 5.44016 26.4203 4.64871 25.9321 4.16055Z" fill="currentColor" />
    </symbol>

    <symbol id="equipment" viewBox="0 0 20 20">
        <path d="M15.6048 9.20264C16.504 9.33512 16.9294 10.197 17.2398 10.9536C17.4361 11.0861 18.7075 10.9232 19.0742 10.9918C19.1977 11.0152 19.2963 11.0736 19.3338 11.1991C19.4206 11.4929 19.3854 13.4901 19.3479 13.9008C19.2196 15.3315 17.9865 16.5198 16.5446 16.5853L16.54 17.2033C17.6542 17.1035 18.8858 17.5095 19.5809 18.4088C19.8874 18.8054 20.1924 19.5262 19.817 19.961L1.28912 20C0.201446 19.8784 -0.356854 18.7197 0.249145 17.7986C0.421952 17.536 0.672953 17.4635 0.843414 17.2251C1.4674 14.2304 1.68634 10.9832 2.36428 8.01974C2.42839 7.73842 2.52535 7.47114 2.64108 7.20775C2.70598 7.06047 2.92649 6.85475 2.94447 6.7441C3.03596 6.17914 2.44951 6.28979 2.03195 6.13238C-1.10204 4.95259 -0.421755 0.373687 2.92492 0.111858C7.46405 -0.243483 12.463 0.386155 17.0498 0.111858C18.623 0.245889 19.8507 1.44672 19.975 3.02471C20.0508 3.98865 19.9273 5.0648 19.9554 6.04043C19.8898 6.17836 19.7733 6.29836 19.6192 6.32642C19.2908 6.3872 17.551 6.25239 17.4759 6.32797C17.6003 7.50075 16.719 8.13818 15.604 7.95973V9.20264H15.6048ZM18.8029 1.66803C18.4268 1.15684 17.7441 0.840461 17.1248 0.73682L2.9257 0.732924C0.207702 0.967479 -0.222362 4.76557 2.34551 5.58846C2.62779 5.67885 3.25099 5.68353 3.36359 5.81756C3.74908 6.74176 3.50981 8.39923 4.70539 8.75379C6.55231 9.30083 6.58906 6.6576 7.37491 5.70691H19.3494V4.77492H16.1122C16.0552 4.77492 15.8722 4.52867 15.9136 4.42971C15.9089 4.34867 16.0739 4.15385 16.1122 4.15385H19.3494V3.53279H16.1122C16.0552 3.53279 15.8722 3.28654 15.9136 3.18758C15.9089 3.10653 16.0739 2.91172 16.1122 2.91172H19.3494L19.1931 2.29065H16.1115C16.0544 2.29065 15.8714 2.04441 15.9128 1.94544C15.9082 1.8644 16.0731 1.66959 16.1115 1.66959H18.8029V1.66803ZM10.3001 17.204H14.0448L14.0409 16.5861C12.599 16.5206 11.3659 15.3315 11.2377 13.9015C11.1915 13.3849 11.1516 11.7181 11.2384 11.2638C11.251 11.1999 11.2658 11.1508 11.3065 11.0986C11.5129 10.8375 12.9564 11.0962 13.3458 10.9536C13.6562 10.1962 14.0816 9.33512 14.9808 9.20264V7.95973C13.8657 8.13818 12.9845 7.50075 13.1088 6.32797L7.91679 6.32408C7.63842 6.25394 7.35692 7.1119 7.37491 7.27087C7.3968 7.46335 7.57899 7.75713 7.62669 8.01974C7.88317 9.4333 7.92304 10.8913 8.24755 12.2955C8.65728 14.0683 9.66128 15.5419 10.3001 17.2033V17.204ZM16.8527 6.32875H13.732C13.6812 6.67942 13.7735 7.13138 14.1425 7.27944C14.3818 7.37529 16.1247 7.38386 16.389 7.3036C16.7839 7.18282 16.9153 6.695 16.8527 6.32875ZM1.4846 17.204H9.67536C9.02401 15.8146 8.18186 14.4151 7.76431 12.9314C7.33112 11.3931 7.27404 9.76527 7.02226 8.19273C6.71339 8.54106 6.61096 8.85821 6.1895 9.11069C5.19253 9.70682 4.17914 9.45668 3.47853 8.5769L3.08444 7.80466L1.4846 17.2048V17.204ZM14.9808 10.9895V9.82449C14.5163 10.0427 14.1996 10.4752 14.044 10.9497L14.9808 10.9895ZM15.6048 9.82449V10.9895L16.5415 10.9497C16.3851 10.4752 16.0692 10.0427 15.6048 9.82449ZM18.7247 11.6113H11.8601V13.9803C11.8601 14.6192 12.6326 15.4928 13.2105 15.7429C13.9549 16.0663 16.5024 16.0749 17.264 15.7881C17.8958 15.5497 18.7247 14.6691 18.7247 13.9803V11.6113ZM15.9168 16.583H14.6688V17.204H15.9168V16.583ZM19.3487 19.3789C19.1524 18.4469 18.1484 17.9654 17.2804 17.8259L1.17026 17.8617C0.646367 18.0199 0.453229 18.6683 0.792589 19.0961C0.850452 19.1693 1.16088 19.3782 1.21092 19.3782H19.3479L19.3487 19.3789Z" fill="black"/>
        <path d="M5.3106 12.9283C7.23338 13.2688 6.81583 16.1411 4.80938 15.9533C3.07114 15.7905 2.95073 13.1667 4.67958 12.9283C4.72337 12.6711 4.56777 12.0937 4.83831 11.9581C5.47481 11.7828 5.28245 12.5192 5.30982 12.9283H5.3106ZM4.82033 13.4917C3.69825 13.674 3.88827 15.4499 5.10261 15.3354C6.31148 15.2208 6.12225 13.2805 4.82033 13.4917Z" fill="black"/>
    </symbol>

    <symbol id="heart" viewBox="0 0 24 24">
        <path fill-rule="evenodd" clip-rule="evenodd" d="M3.48883 6.00387C2.76317 7.24787 2.52434 8.97403 2.9702 10.7575C3.13065 11.3992 3.59709 12.2243 4.33633 13.174C5.06122 14.1052 5.98646 15.0787 6.96642 16.0127C8.90951 17.8648 11.0006 19.4985 12.0001 20.254C12.9995 19.4985 15.0906 17.8648 17.0337 16.0127C18.0137 15.0787 18.9389 14.1052 19.6638 13.174C20.403 12.2243 20.8695 11.3992 21.0299 10.7575C21.4758 8.97403 21.237 7.24788 20.5113 6.00387C19.803 4.78965 18.6202 4 17.0001 4C15.5905 4 14.597 5.04228 13.8945 6.44721C13.557 7.12228 13.3275 7.80745 13.1823 8.33015C13.1103 8.58959 13.0602 8.80435 13.0286 8.95172C12.9167 9.47392 12.3144 9.5 12.0001 9.5C11.6858 9.5 11.0823 9.46905 10.9715 8.95172C10.9399 8.80436 10.8899 8.58959 10.8178 8.33015C10.6726 7.80745 10.4432 7.12229 10.1056 6.44722C9.40314 5.04228 8.40963 4 7.00004 4C5.37986 4 4.19713 4.78965 3.48883 6.00387ZM12.0001 5.77011C12.0342 5.69784 12.0694 5.62535 12.1056 5.55279C12.9032 3.95772 14.4097 2 17.0001 2C19.3799 2 21.1971 3.21035 22.2388 4.99613C23.2632 6.75212 23.5243 9.02597 22.9702 11.2425C22.7077 12.2927 22.0355 13.3832 21.242 14.4025C20.4342 15.4402 19.4327 16.4891 18.4136 17.4605C16.3742 19.4042 14.1957 21.1022 13.1811 21.8683C12.4804 22.3974 11.5197 22.3974 10.819 21.8683C9.80439 21.1022 7.62589 19.4042 5.58654 17.4605C4.56739 16.4891 3.56592 15.4402 2.75812 14.4025C1.96467 13.3832 1.29246 12.2927 1.02992 11.2425C0.475775 9.02597 0.736945 6.75213 1.76127 4.99613C2.80297 3.21035 4.62023 2 7.00004 2C9.59044 2 11.0969 3.95772 11.8945 5.55278C11.9308 5.62535 11.9659 5.69784 12.0001 5.77011Z" fill="currentColor"/>
    </symbol>

    <symbol id="mortarboard" viewBox="0 0 24 24" >
        <path fill-rule="evenodd" clip-rule="evenodd" d="M12.4494 3.07772C12.1667 2.93543 11.8333 2.93535 11.5506 3.07751L0.550872 8.60778C-0.182438 8.97646 -0.183844 10.0228 0.548471 10.3934L5.00001 12.6465V17C5.00001 19.2091 6.79087 21 9.00001 21H15C17.2092 21 19 19.2091 19 17V12.6352L22 11.124V14C22 14.5523 22.4477 15 23 15C23.5523 15 24 14.5523 24 14V9.62991C24 9.20695 23.8394 8.81077 23.4424 8.61095C19.7781 6.76658 16.1137 4.92212 12.4494 3.07772ZM11.9995 5.09035L3.22035 9.5042L11.9742 13.9349L20.7693 9.50453L11.9995 5.09035ZM7.00001 17V13.6588L11.5216 15.9474C11.8049 16.0908 12.1395 16.0911 12.423 15.9482L17 13.6427V17C17 18.1046 16.1046 19 15 19H9.00001C7.89544 19 7.00001 18.1046 7.00001 17Z" fill="currentColor" />
    </symbol>

    <symbol id="scales" viewBox="0 0 24 24">
        <path fill-rule="evenodd" clip-rule="evenodd" d="M12 1C12.5523 1 13 1.44772 13 2V3.03241C14.2498 3.11076 15.4551 3.31872 16.4996 3.51766C16.7363 3.56274 16.9613 3.6067 17.1766 3.64875C17.5771 3.72697 17.9441 3.79865 18.2885 3.85854C18.8201 3.95099 19.2169 4 19.5 4C20.0262 4 20.4799 3.824 20.8163 3.63176C20.987 3.53425 21.1543 3.42192 21.2985 3.28732C21.6894 2.90238 22.3184 2.90423 22.7071 3.29289C23.0976 3.68342 23.0976 4.31658 22.7071 4.70711C22.6248 4.78929 22.5358 4.8645 22.445 4.93712C22.2947 5.05735 22.08 5.21318 21.8086 5.36824C21.5531 5.51425 21.2396 5.66392 20.8766 5.7809L23.592 12.7633C23.8408 13.403 24.0883 14.3096 23.7733 15.2388C23.5809 15.8064 23.2111 16.5114 22.5024 17.0733C21.7828 17.6438 20.7978 18 19.5 18C18.2022 18 17.2171 17.6438 16.4976 17.0733C15.7888 16.5114 15.419 15.8064 15.2267 15.2388C14.9117 14.3096 15.1592 13.403 15.4079 12.7633L18.0948 5.85438C17.6825 5.78545 17.2362 5.69819 16.7643 5.60606C16.5535 5.5649 16.3393 5.5231 16.1254 5.48234C15.1313 5.293 14.0689 5.11204 13 5.03671V21H17C17.5523 21 18 21.4477 18 22C18 22.5523 17.5523 23 17 23H6.99997C6.44769 23 5.99997 22.5523 5.99997 22C5.99997 21.4477 6.44769 21 6.99997 21H11V5.03671C9.93103 5.11204 8.8686 5.293 7.87459 5.48234C7.6606 5.5231 7.44648 5.5649 7.23564 5.60606C6.76372 5.69819 6.31746 5.78545 5.90519 5.85438L8.592 12.7633C8.84076 13.403 9.08828 14.3096 8.77329 15.2388C8.58092 15.8064 8.2111 16.5114 7.50236 17.0733C6.7828 17.6438 5.79778 18 4.49997 18C3.20216 18 2.21714 17.6438 1.49759 17.0733C0.788849 16.5114 0.419026 15.8064 0.226658 15.2388C-0.0883352 14.3096 0.15918 13.403 0.407944 12.7633L3.12333 5.7809C2.76037 5.66392 2.44685 5.51425 2.19133 5.36824C1.91997 5.21318 1.70526 5.05735 1.55497 4.93712C1.54619 4.9301 1.29287 4.70711 1.29287 4.70711C0.902342 4.31658 0.902342 3.68342 1.29287 3.29289C1.68152 2.90424 2.31049 2.90238 2.70144 3.2873C2.71452 3.29973 2.89565 3.46721 3.18361 3.63176C3.52004 3.824 3.97375 4 4.49997 4C4.78308 4 5.17985 3.95099 5.71144 3.85854C6.0559 3.79863 6.42264 3.72701 6.82327 3.64876C7.03848 3.60673 7.26379 3.56272 7.50036 3.51766C8.54483 3.31872 9.75013 3.11076 11 3.03241V2C11 1.44772 11.4477 1 12 1ZM4.49997 7.75903L2.46182 13H6.53813L4.49997 7.75903ZM2.74013 15.5061C2.55188 15.3569 2.41017 15.1818 2.30348 15H6.69647C6.58978 15.1818 6.44806 15.3569 6.25982 15.5061C5.94441 15.7562 5.41582 16 4.49997 16C3.58413 16 3.05553 15.7562 2.74013 15.5061ZM17.4618 13L19.5 7.75903L21.5381 13H17.4618ZM17.3035 15C17.4102 15.1818 17.5519 15.3569 17.7401 15.5061C18.0555 15.7562 18.5841 16 19.5 16C20.4158 16 20.9444 15.7562 21.2598 15.5061C21.4481 15.3569 21.5898 15.1818 21.6965 15H17.3035Z" fill="currentColor"/>
    </symbol>

    <symbol id="shopping-cart" viewBox="0 0 24 24">
        <path fill-rule="evenodd" clip-rule="evenodd" d="M2 1C1.44772 1 1 1.44772 1 2C1 2.55228 1.44772 3 2 3H3.21922L6.78345 17.2569C5.73276 17.7236 5 18.7762 5 20C5 21.6569 6.34315 23 8 23C9.65685 23 11 21.6569 11 20C11 19.6494 10.9398 19.3128 10.8293 19H15.1707C15.0602 19.3128 15 19.6494 15 20C15 21.6569 16.3431 23 18 23C19.6569 23 21 21.6569 21 20C21 18.3431 19.6569 17 18 17H8.78078L8.28078 15H18C20.0642 15 21.3019 13.6959 21.9887 12.2559C22.6599 10.8487 22.8935 9.16692 22.975 7.94368C23.0884 6.24014 21.6803 5 20.1211 5H5.78078L5.15951 2.51493C4.93692 1.62459 4.13696 1 3.21922 1H2ZM18 13H7.78078L6.28078 7H20.1211C20.6742 7 21.0063 7.40675 20.9794 7.81078C20.9034 8.9522 20.6906 10.3318 20.1836 11.3949C19.6922 12.4251 19.0201 13 18 13ZM18 20.9938C17.4511 20.9938 17.0062 20.5489 17.0062 20C17.0062 19.4511 17.4511 19.0062 18 19.0062C18.5489 19.0062 18.9938 19.4511 18.9938 20C18.9938 20.5489 18.5489 20.9938 18 20.9938ZM7.00617 20C7.00617 20.5489 7.45112 20.9938 8 20.9938C8.54888 20.9938 8.99383 20.5489 8.99383 20C8.99383 19.4511 8.54888 19.0062 8 19.0062C7.45112 19.0062 7.00617 19.4511 7.00617 20Z" fill="currentColor"/>
    </symbol>

    <symbol id="user" viewBox="0 0 24 24">
        <path fill-rule="evenodd" clip-rule="evenodd" d="M12 12C14.7614 12 17 9.53756 17 6.5C17 3.46243 14.7614 1 12 1C9.23858 1 7 3.46243 7 6.5C7 9.53756 9.23858 12 12 12ZM12 9.8C10.3431 9.8 9 8.32254 9 6.5C9 4.67746 10.3431 3.2 12 3.2C13.6569 3.2 15 4.67746 15 6.5C15 8.32254 13.6569 9.8 12 9.8Z" fill="currentColor"/>
        <path fill-rule="evenodd" clip-rule="evenodd" d="M19.1029 14.1087C18.2604 13.2634 16.957 13.0811 15.9161 13.6987C15.7257 13.8117 15.5581 13.9151 15.4036 14.0105C14.9937 14.2635 14.6755 14.4598 14.2654 14.6283C13.75 14.8401 13.0835 15 12 15C10.9268 15 10.2493 14.8491 9.72609 14.6447C9.26355 14.464 8.89822 14.237 8.41685 13.9378C8.32296 13.8795 8.22448 13.8183 8.12019 13.7543C7.07587 13.1132 5.73464 13.2622 4.86415 14.1419C4.48443 14.5256 4.04036 15.0219 3.6849 15.5626C3.34603 16.0781 3 16.7638 3 17.5V20.0003C3 21.6574 4.34334 23 6 23H18C19.6567 23 21 21.6574 21 20.0003V17.5C21 16.7541 20.6447 16.0592 20.2996 15.5391C19.937 14.9927 19.4852 14.4923 19.1029 14.1087ZM16.9367 15.4187C17.1759 15.2768 17.478 15.3116 17.6863 15.5205C18.0214 15.8568 18.3724 16.2521 18.6331 16.645C18.9113 17.0642 19 17.352 19 17.5V20.0003C19 20.5524 18.5525 21 18 21H6C5.44752 21 5 20.5524 5 20.0003V17.5C5 17.3549 5.08549 17.0729 5.35613 16.6613C5.61017 16.2748 5.95358 15.8844 6.28579 15.5487C6.49412 15.3381 6.81106 15.2974 7.07389 15.4588C7.15661 15.5095 7.24087 15.5621 7.32694 15.6159C7.80938 15.9171 8.34918 16.254 8.99836 16.5076C9.79304 16.8181 10.7242 17 12 17C13.3002 17 14.2313 16.8046 15.0254 16.4783C15.6006 16.242 16.1079 15.9282 16.5558 15.6512C16.6879 15.5695 16.8148 15.491 16.9367 15.4187Z" fill="currentColor"/>
    </symbol>
</svg>
