<svg aria-hidden="true" style="position: absolute; width: 0; height: 0; overflow: hidden;" version="1.1"
  xmlns="http://www.w3.org/2000/svg" xmlns:xlink="http://www.w3.org/1999/xlink">
  <defs>
    <symbol id="icon-arrow-down" viewBox="0 0 32 32">
      <path fill="#9f9f9f" style="fill: var(--color1, #9f9f9f)"
        d="M7.609 12.947c-0.521 0.521-0.521 1.365 0 1.886l6.523 6.517c1.041 1.041 2.729 1.040 3.77-0.001l6.521-6.52c0.521-0.521 0.521-1.365 0-1.886s-1.365-0.521-1.886 0l-5.581 5.581c-0.521 0.521-1.365 0.521-1.886 0l-5.576-5.576c-0.521-0.521-1.365-0.521-1.886 0z">
      </path>
    </symbol>
    <symbol id="icon-arrow-left" viewBox="0 0 32 32">
      <path
        d="M0.551 14.412c-0.735 0.735-0.735 1.927 0 2.662l11.979 11.979c0.735 0.735 1.927 0.735 2.662 0s0.735-1.927 0-2.662l-10.648-10.648 10.648-10.648c0.735-0.735 0.735-1.927 0-2.662s-1.927-0.735-2.662 0l-11.979 11.979zM31.462 15.743v-1.882h-29.58v3.765h29.58v-1.882z">
      </path>
    </symbol>
    <symbol id="icon-arrow-right" viewBox="0 0 32 32">
      <path fill="#fff" style="fill: var(--color2, #fff)"
        d="M30.911 14.412c0.735 0.735 0.735 1.927 0 2.662l-11.979 11.979c-0.735 0.735-1.927 0.735-2.662 0s-0.735-1.927 0-2.662l10.648-10.648-10.648-10.648c-0.735-0.735-0.735-1.927 0-2.662s1.927-0.735 2.662 0l11.979 11.979zM0 15.743v-1.882h29.58v3.765h-29.58v-1.882z">
      </path>
    </symbol>
    <symbol id="icon-arrow-top" viewBox="0 0 32 32">
      <path fill="#9f9f9f" style="fill: var(--color1, #9f9f9f)"
        d="M7.609 19.053c-0.521-0.521-0.521-1.365 0-1.886l6.523-6.517c1.041-1.041 2.729-1.040 3.77 0.001l6.521 6.52c0.521 0.521 0.521 1.365 0 1.886s-1.365 0.521-1.886 0l-5.581-5.581c-0.521-0.521-1.365-0.521-1.886 0l-5.576 5.576c-0.521 0.521-1.365 0.521-1.886 0z">
      </path>
    </symbol>
    <symbol id="icon-call-receive" viewBox="0 0 32 32">
      <path fill="#fff" style="fill: var(--color2, #fff)"
        d="M23.139 29.643c-2.693-0.675-8.207-2.577-13.206-7.576s-6.901-10.513-7.576-13.206c-0.388-1.548 0.311-3.042 1.495-3.887l3.104-2.217c1.816-1.297 4.343-0.857 5.614 0.978l1.954 2.823c0.83 1.198 0.543 2.841-0.643 3.688l-1.558 1.113c0.236 0.902 0.969 2.755 3.267 5.052s4.15 3.031 5.052 3.267l1.113-1.558c0.847-1.186 2.49-1.472 3.688-0.643l2.823 1.954c1.835 1.271 2.275 3.797 0.978 5.614l-2.217 3.104c-0.846 1.184-2.339 1.883-3.887 1.495zM11.819 20.181c4.546 4.546 9.562 6.272 11.969 6.875 0.352 0.088 0.777-0.049 1.069-0.458l2.217-3.104c0.432-0.605 0.286-1.448-0.326-1.871l-2.823-1.954-1.195 1.672c-0.488 0.683-1.391 1.219-2.442 0.993-1.312-0.283-3.737-1.191-6.584-4.038s-3.755-5.272-4.038-6.584c-0.227-1.051 0.309-1.954 0.993-2.442l1.672-1.195-1.954-2.823c-0.424-0.612-1.266-0.758-1.871-0.326l-3.104 2.217c-0.409 0.292-0.546 0.718-0.458 1.069 0.603 2.406 2.329 7.423 6.875 11.969z">
      </path>
    </symbol>
    <symbol id="icon-close" viewBox="0 0 32 32">
      <path
        d="M27.661 4.438c-0.521-0.521-1.365-0.521-1.886 0l-9.726 9.726-9.726-9.726c-0.521-0.521-1.365-0.521-1.886 0s-0.521 1.365 0 1.886l9.726 9.726-9.726 9.726c-0.521 0.521-0.521 1.365 0 1.886s1.365 0.521 1.886 0l9.726-9.726 9.726 9.726c0.521 0.521 1.365 0.521 1.886 0s0.521-1.365 0-1.886l-9.726-9.726 9.726-9.726c0.521-0.521 0.521-1.365 0-1.886z">
      </path>
    </symbol>
    <symbol id="icon-eye-off" viewBox="0 0 32 32">
      <path fill="#9f9f9f" style="fill: var(--color1, #9f9f9f)"
        d="M5.995 9.921c-1.264 0.903-2.289 1.868-3.075 2.719-1.776 1.923-1.776 4.797 0 6.721 2.303 2.494 6.666 5.973 13.081 5.973 1.728 0 3.307-0.252 4.736-0.67l-2.217-2.217c-0.794 0.141-1.634 0.22-2.519 0.22-5.377 0-9.082-2.907-11.122-5.115-0.833-0.902-0.833-2.201 0-3.102 0.772-0.836 1.782-1.772 3.031-2.612l-1.916-1.916z">
      </path>
      <path fill="#9f9f9f" style="fill: var(--color1, #9f9f9f)"
        d="M11.379 15.304c-0.034 0.227-0.051 0.459-0.051 0.695 0 2.577 2.089 4.667 4.667 4.667 0.236 0 0.469-0.018 0.695-0.051l-5.311-5.311z">
      </path>
      <path fill="#9f9f9f" style="fill: var(--color1, #9f9f9f)"
        d="M20.623 16.596l-5.225-5.225c0.195-0.025 0.394-0.038 0.596-0.038 2.577 0 4.667 2.089 4.667 4.667 0 0.202-0.013 0.401-0.038 0.596z">
      </path>
      <path fill="#9f9f9f" style="fill: var(--color1, #9f9f9f)"
        d="M24.15 20.123c1.222-0.83 2.213-1.75 2.973-2.572 0.833-0.902 0.833-2.201 0-3.102-2.039-2.209-5.744-5.115-11.122-5.115-0.854 0-1.666 0.073-2.436 0.206l-2.224-2.224c1.41-0.404 2.963-0.648 4.66-0.648 6.415 0 10.778 3.479 13.081 5.973 1.776 1.923 1.776 4.797 0 6.721-0.774 0.838-1.78 1.787-3.018 2.677l-1.914-1.914z">
      </path>
      <path fill="#9f9f9f" style="fill: var(--color1, #9f9f9f)"
        d="M2.679 4.563c-0.521-0.521-0.521-1.365 0-1.886s1.365-0.521 1.886 0l24.771 24.771c0.521 0.521 0.521 1.365 0 1.886s-1.365 0.521-1.886 0l-24.771-24.771z">
      </path>
    </symbol>
    <symbol id="icon-eye-show" viewBox="0 0 32 32">
      <path fill="#9f9f9f" style="fill: var(--color1, #9f9f9f)"
        d="M15.994 20.667c2.577 0 4.667-2.089 4.667-4.667s-2.089-4.667-4.667-4.667c-2.577 0-4.667 2.089-4.667 4.667s2.089 4.667 4.667 4.667zM15.994 17.993c-1.1 0-1.993-0.892-1.993-1.993s0.892-1.993 1.993-1.993c1.1 0 1.993 0.892 1.993 1.993s-0.892 1.993-1.993 1.993z">
      </path>
      <path fill="#9f9f9f" style="fill: var(--color1, #9f9f9f)"
        d="M16.001 6.667c-6.415 0-10.778 3.479-13.081 5.973-1.776 1.923-1.776 4.797 0 6.721 2.303 2.494 6.666 5.973 13.081 5.973s10.778-3.479 13.081-5.973c1.776-1.923 1.776-4.797 0-6.721-2.303-2.494-6.666-5.973-13.081-5.973zM4.88 14.449c2.040-2.209 5.744-5.115 11.122-5.115s9.082 2.907 11.122 5.115c0.833 0.902 0.833 2.201 0 3.102-2.039 2.209-5.744 5.115-11.122 5.115s-9.082-2.907-11.122-5.115c-0.833-0.902-0.833-2.201 0-3.102z">
      </path>
    </symbol>
    <symbol id="icon-heart" viewBox="0 0 32 32">
      <path
        d="M4.652 8.005c-0.968 1.659-1.286 3.96-0.692 6.338 0.214 0.856 0.836 1.956 1.821 3.222 0.967 1.242 2.2 2.54 3.507 3.785 2.591 2.469 5.379 4.648 6.712 5.655 1.333-1.007 4.121-3.186 6.711-5.655 1.307-1.245 2.54-2.543 3.507-3.785 0.986-1.266 1.608-2.366 1.821-3.222 0.595-2.378 0.276-4.679-0.691-6.338-0.944-1.619-2.521-2.672-4.682-2.672-1.879 0-3.204 1.39-4.141 3.263-0.45 0.9-0.756 1.814-0.95 2.511-0.096 0.346-0.163 0.632-0.205 0.829-0.149 0.696-0.952 0.731-1.371 0.731s-1.224-0.041-1.371-0.731c-0.042-0.196-0.109-0.483-0.205-0.829-0.194-0.697-0.499-1.61-0.95-2.511-0.937-1.873-2.261-3.263-4.141-3.263-2.16 0-3.737 1.053-4.682 2.672zM16 7.693c0.045-0.096 0.092-0.193 0.141-0.29 1.063-2.127 3.072-4.737 6.526-4.737 3.173 0 5.596 1.614 6.985 3.995 1.366 2.341 1.714 5.373 0.975 8.329-0.35 1.4-1.246 2.854-2.304 4.213-1.077 1.384-2.412 2.782-3.771 4.077-2.719 2.592-5.624 4.856-6.977 5.877-0.934 0.705-2.215 0.705-3.149 0-1.353-1.021-4.257-3.285-6.977-5.877-1.359-1.295-2.694-2.694-3.771-4.077-1.058-1.359-1.954-2.813-2.304-4.213-0.739-2.955-0.391-5.987 0.975-8.329 1.389-2.381 3.812-3.995 6.985-3.995 3.454 0 5.462 2.61 6.526 4.737 0.048 0.097 0.095 0.193 0.141 0.29z">
      </path>
    </symbol>
    <symbol id="icon-log-in" viewBox="0 0 32 32">
      <path fill="#579040" style="fill: var(--color3, #579040)"
        d="M26.667 30.667h-10.667c-0.736 0-1.333-0.597-1.333-1.333s0.597-1.333 1.333-1.333h10.667c0.736 0 1.333-0.597 1.333-1.333v-21.333c0-0.736-0.597-1.333-1.333-1.333h-10.667c-0.736 0-1.333-0.597-1.333-1.333s0.597-1.333 1.333-1.333h10.667c2.209 0 4 1.791 4 4v21.333c0 2.209-1.791 4-4 4z">
      </path>
      <path fill="#579040" style="fill: var(--color3, #579040)"
        d="M24.917 14.253c0.869 1.002 0.869 2.491 0 3.493l-5.569 6.426c-1.617 1.865-4.682 0.722-4.682-1.746v-2.426h-8c-1.473 0-2.667-1.194-2.667-2.667v-2.667c0-1.473 1.194-2.667 2.667-2.667h8v-2.426c0-2.469 3.065-3.612 4.682-1.746l5.569 6.426zM22.145 16.873c0.434-0.501 0.434-1.245 0-1.747l-4.812-5.552v3.092c0 1.105-0.895 2-2 2h-8.667v2.667h8.667c1.105 0 2 0.895 2 2v3.092l4.812-5.553z">
      </path>
    </symbol>
    <symbol id="icon-menu" viewBox="0 0 32 32">
      <path fill="#fff" style="fill: var(--color2, #fff)"
        d="M1.333 16c0-0.736 0.597-1.333 1.333-1.333h26.667c0.736 0 1.333 0.597 1.333 1.333s-0.597 1.333-1.333 1.333h-26.667c-0.736 0-1.333-0.597-1.333-1.333z">
      </path>
      <path fill="#fff" style="fill: var(--color2, #fff)"
        d="M1.333 5.333c0-0.736 0.597-1.333 1.333-1.333h26.667c0.736 0 1.333 0.597 1.333 1.333s-0.597 1.333-1.333 1.333h-26.667c-0.736 0-1.333-0.597-1.333-1.333z">
      </path>
      <path fill="#fff" style="fill: var(--color2, #fff)"
        d="M1.333 26.667c0-0.736 0.597-1.333 1.333-1.333h26.667c0.736 0 1.333 0.597 1.333 1.333s-0.597 1.333-1.333 1.333h-26.667c-0.736 0-1.333-0.597-1.333-1.333z">
      </path>
    </symbol>
    <symbol id="icon-mortarboard" viewBox="0 0 32 32">
      <path fill="#fdc109" style="fill: var(--color4, #fdc109)"
        d="M16.599 4.104c-0.377-0.19-0.821-0.19-1.198-0l-14.666 7.374c-0.978 0.492-0.98 1.887-0.003 2.381l5.935 3.004v5.805c0 2.945 2.388 5.333 5.333 5.333h8c2.946 0 5.333-2.388 5.333-5.333v-5.82l4-2.015v3.835c0 0.736 0.597 1.333 1.333 1.333s1.333-0.597 1.333-1.333v-5.827c0-0.564-0.214-1.092-0.743-1.359-4.886-2.459-9.772-4.918-14.657-7.378zM15.999 6.787l-11.706 5.885 11.672 5.908 11.727-5.907-11.693-5.886zM9.333 22.667v-4.455l6.029 3.051c0.378 0.191 0.824 0.192 1.202 0.001l6.103-3.074v4.476c0 1.473-1.194 2.667-2.667 2.667h-8c-1.473 0-2.667-1.194-2.667-2.667z">
      </path>
    </symbol>
    <symbol id="icon-scales" viewBox="0 0 32 32">
      <path
        d="M16 1.333c-0.736 0-1.333 0.597-1.333 1.333v1.377c-1.666 0.104-3.274 0.382-4.666 0.647-0.315 0.060-0.616 0.119-0.903 0.175-0.534 0.104-1.023 0.2-1.482 0.28-0.709 0.123-1.238 0.189-1.615 0.189-0.702 0-1.307-0.235-1.755-0.491-0.384-0.219-0.625-0.443-0.643-0.459-0.521-0.513-1.36-0.511-1.878 0.007-0.521 0.521-0.521 1.365 0 1.886 0 0 0.338 0.297 0.349 0.307 0.2 0.16 0.487 0.368 0.848 0.575 0.341 0.195 0.759 0.394 1.243 0.55l-3.62 9.31c-0.332 0.853-0.662 2.062-0.242 3.301 0.256 0.757 0.75 1.697 1.695 2.446 0.959 0.761 2.273 1.236 4.003 1.236s3.044-0.475 4.003-1.236c0.945-0.749 1.438-1.689 1.695-2.446 0.42-1.239 0.090-2.448-0.242-3.301l-3.582-9.212c0.55-0.092 1.145-0.208 1.774-0.331 0.281-0.055 0.567-0.111 0.852-0.165 1.325-0.252 2.742-0.494 4.167-0.594v21.284h-5.333c-0.736 0-1.333 0.597-1.333 1.333s0.597 1.333 1.333 1.333h13.333c0.736 0 1.333-0.597 1.333-1.333s-0.597-1.333-1.333-1.333h-5.333v-21.284c1.425 0.1 2.842 0.342 4.167 0.594 0.285 0.054 0.571 0.11 0.852 0.165 0.629 0.123 1.224 0.239 1.774 0.331l-3.583 9.212c-0.332 0.853-0.662 2.062-0.242 3.301 0.256 0.757 0.749 1.697 1.695 2.446 0.959 0.761 2.273 1.236 4.003 1.236s3.044-0.475 4.003-1.236c0.945-0.749 1.438-1.689 1.695-2.446 0.42-1.239 0.090-2.448-0.242-3.301l-3.621-9.31c0.484-0.156 0.902-0.356 1.243-0.55 0.362-0.207 0.648-0.415 0.849-0.575 0.121-0.097 0.24-0.197 0.349-0.307 0.521-0.521 0.521-1.365 0-1.886-0.518-0.518-1.357-0.521-1.878-0.007-0.192 0.179-0.415 0.329-0.643 0.459-0.449 0.256-1.053 0.491-1.755 0.491-0.377 0-0.907-0.065-1.615-0.189-0.459-0.080-0.949-0.175-1.483-0.28-0.287-0.056-0.587-0.115-0.903-0.175-1.393-0.265-3-0.543-4.666-0.647v-1.377c0-0.736-0.597-1.333-1.333-1.333zM6 10.345l-2.718 6.988h5.435l-2.718-6.988zM3.654 20.675c-0.251-0.199-0.44-0.432-0.582-0.675h5.857c-0.142 0.242-0.331 0.476-0.582 0.675-0.421 0.333-1.125 0.659-2.346 0.659s-1.926-0.325-2.346-0.659zM23.282 17.333l2.718-6.988 2.717 6.988h-5.435zM23.071 20c0.142 0.242 0.331 0.476 0.582 0.675 0.421 0.333 1.125 0.659 2.347 0.659s1.926-0.325 2.346-0.659c0.251-0.199 0.44-0.432 0.582-0.675h-5.857z">
      </path>
    </symbol>
    <symbol id="icon-search" viewBox="0 0 32 32">
      <path
        d="M22.719 20.833c1.643-2.054 2.625-4.659 2.625-7.494 0-6.63-5.375-12.005-12.005-12.005s-12.005 5.375-12.005 12.005c0 6.63 5.375 12.005 12.005 12.005 2.835 0 5.44-0.982 7.494-2.625l7.557 7.557c0.521 0.521 1.366 0.521 1.887 0s0.521-1.366 0-1.887l-7.557-7.557zM13.339 22.69c-5.164 0-9.351-4.187-9.351-9.351s4.187-9.351 9.351-9.351c5.164 0 9.351 4.187 9.351 9.351s-4.187 9.351-9.351 9.351z">
      </path>
    </symbol>
    <symbol id="icon-shopping-cart" viewBox="0 0 32 32">
      <path
        d="M2.667 1.333c-0.736 0-1.333 0.597-1.333 1.333s0.597 1.333 1.333 1.333h1.626l4.752 19.009c-1.401 0.622-2.378 2.026-2.378 3.657 0 2.209 1.791 4 4 4s4-1.791 4-4c0-0.467-0.080-0.916-0.228-1.333h5.789c-0.147 0.417-0.228 0.866-0.228 1.333 0 2.209 1.791 4 4 4s4-1.791 4-4c0-2.209-1.791-4-4-4h-12.292l-0.667-2.667h12.959c2.752 0 4.403-1.739 5.318-3.659 0.895-1.876 1.206-4.119 1.315-5.75 0.151-2.271-1.726-3.925-3.805-3.925h-19.12l-0.828-3.313c-0.297-1.187-1.363-2.020-2.587-2.020h-1.626zM24 17.333h-13.626l-2-8h18.454c0.737 0 1.18 0.542 1.144 1.081-0.101 1.522-0.385 3.361-1.061 4.779-0.655 1.374-1.551 2.14-2.911 2.14zM24 27.992c-0.732 0-1.325-0.593-1.325-1.325s0.593-1.325 1.325-1.325c0.732 0 1.325 0.593 1.325 1.325s-0.593 1.325-1.325 1.325zM9.342 26.667c0 0.732 0.593 1.325 1.325 1.325s1.325-0.593 1.325-1.325c0-0.732-0.593-1.325-1.325-1.325s-1.325 0.593-1.325 1.325z">
      </path>
    </symbol>
    <symbol id="icon-socials-tg" viewBox="0 0 32 32">
      <path fill="#27a6e5" style="fill: var(--color5, #27a6e5)"
        d="M16 0c8.837 0 16 7.163 16 16s-7.163 16-16 16c-8.837 0-16-7.163-16-16s7.163-16 16-16z"></path>
      <path fill="#fefefe" style="fill: var(--color6, #fefefe)"
        d="M22.4 10.082l-2.404 12.552c0 0-0.336 0.87-1.261 0.453l-5.547-4.405-0.026-0.013c0.749-0.697 6.56-6.107 6.814-6.352 0.393-0.38 0.149-0.606-0.307-0.319l-8.583 5.644-3.311-1.154c0 0-0.521-0.192-0.571-0.609s0.588-0.644 0.588-0.644l13.499-5.484c0 0 1.11-0.505 1.11 0.331z">
      </path>
    </symbol>
    <symbol id="icon-socials-viber" viewBox="0 0 32 32">
      <path fill="#7c509a" style="fill: var(--color7, #7c509a)"
        d="M16 0c8.837 0 16 7.163 16 16s-7.163 16-16 16c-8.837 0-16-7.163-16-16s7.163-16 16-16z"></path>
      <path fill="#fff" style="fill: var(--color2, #fff)"
        d="M21.003 7.637c-3.049-0.582-6.216-0.582-9.265 0-1.349 0.291-3.049 1.922-3.342 3.203-0.528 2.504-0.528 5.066 0 7.57 0.352 1.281 2.052 2.912 3.342 3.203 0.059 0 0.117 0.058 0.117 0.116v3.669c0 0.175 0.235 0.291 0.352 0.116l1.759-1.805c0 0 1.407-1.456 1.642-1.689 0 0 0.059-0.058 0.117-0.058 1.759 0.058 3.577-0.116 5.336-0.408 1.349-0.291 3.049-1.922 3.342-3.203 0.528-2.504 0.528-5.066 0-7.57-0.352-1.223-2.052-2.853-3.401-3.144zM21.062 18.584c-0.293 0.582-0.645 1.048-1.231 1.339-0.176 0.058-0.352 0.116-0.528 0.175-0.235-0.058-0.41-0.116-0.586-0.175-1.876-0.757-3.636-1.805-5.043-3.319-0.762-0.873-1.407-1.863-1.935-2.912-0.235-0.524-0.469-0.99-0.645-1.514-0.176-0.466 0.117-0.932 0.41-1.281s0.645-0.582 1.056-0.757c0.293-0.175 0.586-0.058 0.821 0.175 0.469 0.582 0.938 1.165 1.29 1.805 0.235 0.408 0.176 0.874-0.235 1.165-0.117 0.058-0.176 0.116-0.293 0.233-0.059 0.058-0.176 0.116-0.235 0.233-0.117 0.175-0.117 0.349-0.059 0.524 0.469 1.339 1.349 2.387 2.697 2.97 0.235 0.116 0.41 0.175 0.704 0.175 0.41-0.058 0.586-0.524 0.88-0.757s0.645-0.233 0.997-0.058c0.293 0.175 0.586 0.408 0.938 0.641 0.293 0.233 0.586 0.408 0.88 0.641 0.176 0.116 0.235 0.408 0.117 0.699zM18.599 14.217c-0.117 0-0.059 0 0 0-0.235 0-0.293-0.116-0.352-0.291 0-0.116 0-0.291-0.059-0.408-0.059-0.233-0.176-0.466-0.41-0.641-0.117-0.058-0.235-0.116-0.352-0.175-0.176-0.058-0.293-0.058-0.469-0.058-0.176-0.058-0.235-0.175-0.235-0.349 0-0.116 0.176-0.233 0.293-0.233 0.938 0.058 1.642 0.582 1.759 1.689 0 0.058 0 0.175 0 0.233 0 0.116-0.059 0.233-0.176 0.233zM18.013 11.655c-0.293-0.116-0.586-0.233-0.938-0.291-0.117 0-0.293-0.058-0.41-0.058-0.176 0-0.293-0.116-0.235-0.291 0-0.175 0.117-0.291 0.293-0.233 0.586 0.058 1.114 0.175 1.642 0.408 1.056 0.524 1.642 1.398 1.818 2.562 0 0.058 0 0.116 0 0.175 0 0.116 0 0.233 0 0.408 0 0.058 0 0.116 0 0.175-0.059 0.233-0.469 0.291-0.528 0 0-0.058-0.059-0.175-0.059-0.233 0-0.524-0.117-1.048-0.352-1.514-0.352-0.524-0.762-0.873-1.231-1.106zM21.179 15.148c-0.176 0-0.293-0.175-0.293-0.349 0-0.349-0.059-0.699-0.117-1.048-0.235-1.863-1.759-3.377-3.577-3.669-0.293-0.058-0.586-0.058-0.821-0.116-0.176 0-0.41 0-0.469-0.233-0.059-0.175 0.117-0.349 0.293-0.349 0.059 0 0.117 0 0.117 0 0.117 0 2.404 0.058 0 0 2.463 0.058 4.515 1.689 4.926 4.134 0.059 0.408 0.117 0.815 0.117 1.281 0.117 0.175 0 0.349-0.176 0.349z">
      </path>
    </symbol>
    <symbol id="icon-trash" viewBox="0 0 32 32">
      <path fill="#9f9f9f" style="fill: var(--color1, #9f9f9f)"
        d="M12.001 14.667c0-0.736 0.597-1.333 1.333-1.333s1.333 0.597 1.333 1.333v8c0 0.736-0.597 1.333-1.333 1.333s-1.333-0.597-1.333-1.333v-8z">
      </path>
      <path fill="#9f9f9f" style="fill: var(--color1, #9f9f9f)"
        d="M18.668 13.333c-0.736 0-1.333 0.597-1.333 1.333v8c0 0.736 0.597 1.333 1.333 1.333s1.333-0.597 1.333-1.333v-8c0-0.736-0.597-1.333-1.333-1.333z">
      </path>
      <path fill="#9f9f9f" style="fill: var(--color1, #9f9f9f)"
        d="M11.376 1.333c-4.010 0-7.113 3.515-6.615 7.494l2.292 18.336c0.25 2.002 1.952 3.504 3.969 3.504h9.959c2.017 0 3.719-1.502 3.969-3.504l2.292-18.336c0.497-3.979-2.605-7.494-6.615-7.494h-9.25zM7.603 6.667c0.546-1.539 2.014-2.667 3.773-2.667h9.25c1.759 0 3.227 1.127 3.773 2.667h-16.796zM7.512 9.333l2.187 17.499c0.083 0.667 0.651 1.168 1.323 1.168h9.959c0.672 0 1.24-0.501 1.323-1.168l2.187-17.499h-16.979z">
      </path>
    </symbol>
    <symbol id="icon-user" viewBox="0 0 32 32">
      <path
        d="M16 16c3.682 0 6.667-3.283 6.667-7.333s-2.985-7.333-6.667-7.333c-3.682 0-6.667 3.283-6.667 7.333s2.985 7.333 6.667 7.333zM16 13.067c-2.209 0-4-1.97-4-4.4s1.791-4.4 4-4.4c2.209 0 4 1.97 4 4.4s-1.791 4.4-4 4.4z">
      </path>
      <path
        d="M25.471 18.812c-1.123-1.127-2.861-1.37-4.249-0.547-0.254 0.151-0.477 0.289-0.683 0.416-0.547 0.337-0.971 0.599-1.518 0.824-0.687 0.282-1.576 0.496-3.021 0.496-1.431 0-2.334-0.201-3.032-0.474-0.617-0.241-1.104-0.544-1.746-0.943-0.125-0.078-0.257-0.159-0.396-0.245-1.392-0.855-3.181-0.656-4.341 0.517-0.506 0.512-1.098 1.173-1.572 1.894-0.452 0.687-0.913 1.602-0.913 2.583v3.334c0 2.209 1.791 4 4 4h16c2.209 0 4-1.79 4-4v-3.334c0-0.995-0.474-1.921-0.934-2.615-0.483-0.729-1.086-1.396-1.596-1.907zM22.582 20.558c0.319-0.189 0.722-0.143 0.999 0.136 0.447 0.448 0.915 0.975 1.262 1.499 0.371 0.559 0.489 0.943 0.489 1.14v3.334c0 0.736-0.597 1.333-1.333 1.333h-16c-0.737 0-1.333-0.597-1.333-1.333v-3.334c0-0.193 0.114-0.569 0.475-1.118 0.339-0.515 0.797-1.036 1.24-1.483 0.278-0.281 0.7-0.335 1.051-0.12 0.11 0.068 0.223 0.138 0.337 0.209 0.643 0.402 1.363 0.851 2.229 1.189 1.060 0.414 2.301 0.657 4.002 0.657 1.734 0 2.975-0.261 4.034-0.696 0.767-0.315 1.443-0.733 2.041-1.103 0.176-0.109 0.345-0.214 0.508-0.31z">
      </path>
    </symbol>
    <symbol id="icon-view-grid" viewBox="0 0 32 32">
      <path fill="#fdc109" style="fill: var(--color4, #fdc109)"
        d="M10.667 1.333h-5.333c-2.209 0-4 1.791-4 4v5.333c0 2.209 1.791 4 4 4h5.333c2.209 0 4-1.791 4-4v-5.333c0-2.209-1.791-4-4-4zM10.667 4c0.736 0 1.333 0.597 1.333 1.333v5.333c0 0.736-0.597 1.333-1.333 1.333h-5.333c-0.736 0-1.333-0.597-1.333-1.333v-5.333c0-0.736 0.597-1.333 1.333-1.333h5.333z">
      </path>
      <path fill="#fdc109" style="fill: var(--color4, #fdc109)"
        d="M10.667 17.333h-5.333c-2.209 0-4 1.791-4 4v5.333c0 2.209 1.791 4 4 4h5.333c2.209 0 4-1.791 4-4v-5.333c0-2.209-1.791-4-4-4zM10.667 20c0.736 0 1.333 0.597 1.333 1.333v5.333c0 0.736-0.597 1.333-1.333 1.333h-5.333c-0.736 0-1.333-0.597-1.333-1.333v-5.333c0-0.736 0.597-1.333 1.333-1.333h5.333z">
      </path>
      <path fill="#fdc109" style="fill: var(--color4, #fdc109)"
        d="M30.667 5.333v5.333c0 2.209-1.791 4-4 4h-5.333c-2.209 0-4-1.791-4-4v-5.333c0-2.209 1.791-4 4-4h5.333c2.209 0 4 1.791 4 4zM28 5.333c0-0.736-0.597-1.333-1.333-1.333h-5.333c-0.736 0-1.333 0.597-1.333 1.333v5.333c0 0.736 0.597 1.333 1.333 1.333h5.333c0.736 0 1.333-0.597 1.333-1.333v-5.333z">
      </path>
      <path fill="#fdc109" style="fill: var(--color4, #fdc109)"
        d="M26.667 17.333h-5.333c-2.209 0-4 1.791-4 4v5.333c0 2.209 1.791 4 4 4h5.333c2.209 0 4-1.791 4-4v-5.333c0-2.209-1.791-4-4-4zM26.667 20c0.736 0 1.333 0.597 1.333 1.333v5.333c0 0.736-0.597 1.333-1.333 1.333h-5.333c-0.736 0-1.333-0.597-1.333-1.333v-5.333c0-0.736 0.597-1.333 1.333-1.333h5.333z">
      </path>
    </symbol>
  </defs>
</svg>