<svg width="20" height="20" viewBox="0 0 20 20" fill="none" xmlns="http://www.w3.org/2000/svg">
<path d="M15.6048 9.20264C16.504 9.33512 16.9294 10.197 17.2398 10.9536C17.4361 11.0861 18.7075 10.9232 19.0742 10.9918C19.1977 11.0152 19.2963 11.0736 19.3338 11.1991C19.4206 11.4929 19.3854 13.4901 19.3479 13.9008C19.2196 15.3315 17.9865 16.5198 16.5446 16.5853L16.54 17.2033C17.6542 17.1035 18.8858 17.5095 19.5809 18.4088C19.8874 18.8054 20.1924 19.5262 19.817 19.961L1.28912 20C0.201446 19.8784 -0.356854 18.7197 0.249145 17.7986C0.421952 17.536 0.672953 17.4635 0.843414 17.2251C1.4674 14.2304 1.68634 10.9832 2.36428 8.01974C2.42839 7.73842 2.52535 7.47114 2.64108 7.20775C2.70598 7.06047 2.92649 6.85475 2.94447 6.7441C3.03596 6.17914 2.44951 6.28979 2.03195 6.13238C-1.10204 4.95259 -0.421755 0.373687 2.92492 0.111858C7.46405 -0.243483 12.463 0.386155 17.0498 0.111858C18.623 0.245889 19.8507 1.44672 19.975 3.02471C20.0508 3.98865 19.9273 5.0648 19.9554 6.04043C19.8898 6.17836 19.7733 6.29836 19.6192 6.32642C19.2908 6.3872 17.551 6.25239 17.4759 6.32797C17.6003 7.50075 16.719 8.13818 15.604 7.95973V9.20264H15.6048ZM18.8029 1.66803C18.4268 1.15684 17.7441 0.840461 17.1248 0.73682L2.9257 0.732924C0.207702 0.967479 -0.222362 4.76557 2.34551 5.58846C2.62779 5.67885 3.25099 5.68353 3.36359 5.81756C3.74908 6.74176 3.50981 8.39923 4.70539 8.75379C6.55231 9.30083 6.58906 6.6576 7.37491 5.70691H19.3494V4.77492H16.1122C16.0552 4.77492 15.8722 4.52867 15.9136 4.42971C15.9089 4.34867 16.0739 4.15385 16.1122 4.15385H19.3494V3.53279H16.1122C16.0552 3.53279 15.8722 3.28654 15.9136 3.18758C15.9089 3.10653 16.0739 2.91172 16.1122 2.91172H19.3494L19.1931 2.29065H16.1115C16.0544 2.29065 15.8714 2.04441 15.9128 1.94544C15.9082 1.8644 16.0731 1.66959 16.1115 1.66959H18.8029V1.66803ZM10.3001 17.204H14.0448L14.0409 16.5861C12.599 16.5206 11.3659 15.3315 11.2377 13.9015C11.1915 13.3849 11.1516 11.7181 11.2384 11.2638C11.251 11.1999 11.2658 11.1508 11.3065 11.0986C11.5129 10.8375 12.9564 11.0962 13.3458 10.9536C13.6562 10.1962 14.0816 9.33512 14.9808 9.20264V7.95973C13.8657 8.13818 12.9845 7.50075 13.1088 6.32797L7.91679 6.32408C7.63842 6.25394 7.35692 7.1119 7.37491 7.27087C7.3968 7.46335 7.57899 7.75713 7.62669 8.01974C7.88317 9.4333 7.92304 10.8913 8.24755 12.2955C8.65728 14.0683 9.66128 15.5419 10.3001 17.2033V17.204ZM16.8527 6.32875H13.732C13.6812 6.67942 13.7735 7.13138 14.1425 7.27944C14.3818 7.37529 16.1247 7.38386 16.389 7.3036C16.7839 7.18282 16.9153 6.695 16.8527 6.32875ZM1.4846 17.204H9.67536C9.02401 15.8146 8.18186 14.4151 7.76431 12.9314C7.33112 11.3931 7.27404 9.76527 7.02226 8.19273C6.71339 8.54106 6.61096 8.85821 6.1895 9.11069C5.19253 9.70682 4.17914 9.45668 3.47853 8.5769L3.08444 7.80466L1.4846 17.2048V17.204ZM14.9808 10.9895V9.82449C14.5163 10.0427 14.1996 10.4752 14.044 10.9497L14.9808 10.9895ZM15.6048 9.82449V10.9895L16.5415 10.9497C16.3851 10.4752 16.0692 10.0427 15.6048 9.82449ZM18.7247 11.6113H11.8601V13.9803C11.8601 14.6192 12.6326 15.4928 13.2105 15.7429C13.9549 16.0663 16.5024 16.0749 17.264 15.7881C17.8958 15.5497 18.7247 14.6691 18.7247 13.9803V11.6113ZM15.9168 16.583H14.6688V17.204H15.9168V16.583ZM19.3487 19.3789C19.1524 18.4469 18.1484 17.9654 17.2804 17.8259L1.17026 17.8617C0.646367 18.0199 0.453229 18.6683 0.792589 19.0961C0.850452 19.1693 1.16088 19.3782 1.21092 19.3782H19.3479L19.3487 19.3789Z" fill="black"/>
<path d="M5.3106 12.9283C7.23338 13.2688 6.81583 16.1411 4.80938 15.9533C3.07114 15.7905 2.95073 13.1667 4.67958 12.9283C4.72337 12.6711 4.56777 12.0937 4.83831 11.9581C5.47481 11.7828 5.28245 12.5192 5.30982 12.9283H5.3106ZM4.82033 13.4917C3.69825 13.674 3.88827 15.4499 5.10261 15.3354C6.31148 15.2208 6.12225 13.2805 4.82033 13.4917Z" fill="black"/>
</svg>
